{"title":"Apartment.1303.2012.1080p.BluRay.x264-ROVERS","uid":13174418,"size":5860076377,"categoryP":"video","categoryS":"hd___movies","magnet":"?xt=urn:btih:d45ff80a285a34815698b15358e0d2f1857ba0dd&amp;dn=Apartment.1303.2012.1080p.BluRay.x264-ROVERS&amp;tr=udp%3A%2F%2Ftracker.leechers-paradise.org%3A6969&amp;tr=udp%3A%2F%2Fzer0day.ch%3A1337&amp;tr=udp%3A%2F%2Fopen.demonii.com%3A1337&amp;tr=udp%3A%2F%2Ftracker.coppersurfer.tk%3A6969&amp;tr=udp%3A%2F%2Fexodus.desync.com%3A6969","seeders":0,"leechers":0,"uploader":null,"files":3,"time":1452272637,"description":"Video\r\nID                                       : 1\r\nFormat                                   : AVC\r\nFormat/Info                              : Advanced Video Codec\r\nFormat profile                           :   \r\nFormat settings, CABAC                   : Yes\r\nFormat settings, ReFrames                : 5 frames\r\nCodec ID                                 : V_MPEG4/ISO/AVC\r\nDuration                                 : 1h 25mn\r\nBit rate                                 : 8 406 Kbps\r\nWidth                                    : 1 920 pixels\r\nHeight                                   : 800 pixels\r\nDisplay aspect ratio                     : 2.40:1\r\nFrame rate mode                          : Constant\r\nFrame rate                               : 23.976 fps\r\nColor space                              : YUV\r\nChroma subsampling                       : 4:2:0\r\nBit depth                                : 8 bits\r\nScan type                                : Progressive\r\nBits/(Pixel*Frame)                       : 0.228\r\nStream size                              : 4.89 GiB (90%)\r\nTitle                                    : X264\r\nWriting library                          : x264 core 133 r2334 a3ac64b\r\nEncoding settings                        : cabac=1 / ref=5 / deblock=1:0:0 / analyse=0x3:0x133 / me=umh / subme=7 / psy=1 / psy_rd=1.00:0.00 / mixed_ref=1 / me_range=16 / chroma_me=1 / trellis=1 / 8x8dct=1 / cqm=0 / deadzone=21,11 / fast_pskip=0 / chroma_qp_offset=-2 / threads=36 / lookahead_threads=6 / sliced_threads=0 / nr=0 / decimate=1 / interlaced=0 / bluray_compat=0 / constrained_intra=0 / bframes=3 / b_pyramid=2 / b_adapt=1 / b_bias=0 / direct=1 / weightb=1 / open_gop=0 / weightp=2 / keyint=250 / keyint_min=23 / scenecut=40 / intra_refresh=0 / rc_lookahead=40 / rc=2pass / mbtree=1 / bitrate=8406 / ratetol=1.0 / qcomp=0.60 / qpmin=0 / qpmax=69 / qpstep=4 / cplxblur=20.0 / qblur=0.5 / ip_ratio=1.40 / aq=1:1.00\r\nLanguage                                 : English\r\nDefault                                  : Yes\r\nForced                                   : No\r\n\r\nAudio\r\nID                                       : 2\r\nFormat                                   : DTS\r\nFormat/Info                              : Digital Theater Systems\r\nMode                                     : 16\r\nFormat settings, Endianness              : Big\r\nCodec ID                                 : A_DTS\r\nDuration                                 : 1h 25mn\r\nBit rate mode                            : Constant\r\nBit rate                                 : 768 Kbps\r\nChannel(s)                               : 6 channels\r\nChannel positions                        : Front: L C R, Side: L R, LFE\r\nSampling rate                            : 48.0 KHz\r\nFrame rate                               : 93.750 fps (512 spf)\r\nBit depth                                : 24 bits\r\nCompression mode                         : Lossy\r\nStream size                              : 468 MiB (8%)\r\nTitle                                    : DTS\r\nLanguage                                 : English\r\nDefault                                  : Yes\r\nForced                                   : No\r\n\r\nMenu\r\n00:00:00.000                             : en:00:00:00.000\r\n00:05:47.013                             : en:00:05:47.013\r\n00:11:42.285                             : en:00:11:42.285\r\n00:18:30.318                             : en:00:18:30.318\r\n00:22:51.704                             : en:00:22:51.704\r\n00:29:48.870                             : en:00:29:48.870\r\n00:36:12.587                             : en:00:36:12.587\r\n00:43:00.912                             : en:00:43:00.912\r\n00:49:26.297                             : en:00:49:26.297\r\n00:54:54.875                             : en:00:54:54.875\r\n01:04:03.256                             : en:01:04:03.256\r\n01:14:00.478                             : en:01:14:00.478","torrent":{"xt":"urn:btih:d45ff80a285a34815698b15358e0d2f1857ba0dd","amp;dn":"Apartment.1303.2012.1080p.BluRay.x264-ROVERS","amp;tr":["udp%3A%2F%2Ftracker.leechers-paradise.org%3A6969","udp%3A%2F%2Fzer0day.ch%3A1337","udp%3A%2F%2Fopen.demonii.com%3A1337","udp%3A%2F%2Ftracker.coppersurfer.tk%3A6969","udp%3A%2F%2Fexodus.desync.com%3A6969"],"infoHash":"d45ff80a285a34815698b15358e0d2f1857ba0dd","infoHashBuffer":{"type":"Buffer","data":[212,95,248,10,40,90,52,129,86,152,177,83,88,224,210,241,133,123,160,221]},"announce":[],"urlList":[]}}